<mxfile host="app.diagrams.net" modified="2022-07-31T02:36:41.027Z" agent="5.0 (Windows NT 10.0; Win64; x64) AppleWebKit/537.36 (KHTML, like Gecko) Chrome/103.0.0.0 Safari/537.36" etag="vFtZX8b4KaK9STOgZhdA" version="20.2.2" type="github">
  <diagram id="tFEIHMwFv2uCHhk_P5aE" name="Página-1">
    <mxGraphModel dx="1021" dy="520" grid="1" gridSize="10" guides="1" tooltips="1" connect="1" arrows="1" fold="1" page="1" pageScale="1" pageWidth="827" pageHeight="1169" math="0" shadow="0">
      <root>
        <mxCell id="0" />
        <mxCell id="1" parent="0" />
        <mxCell id="Qhr0cGzoNZ5YHBvnVtz_-112" value="" style="edgeStyle=orthogonalEdgeStyle;shape=flexArrow;rounded=0;orthogonalLoop=1;jettySize=auto;html=1;fontSize=16;endArrow=classic;endFill=1;strokeColor=#00CC00;strokeWidth=1;" edge="1" parent="1" source="Qhr0cGzoNZ5YHBvnVtz_-2" target="Qhr0cGzoNZ5YHBvnVtz_-4">
          <mxGeometry relative="1" as="geometry" />
        </mxCell>
        <mxCell id="Qhr0cGzoNZ5YHBvnVtz_-2" value="Início" style="strokeWidth=2;html=1;shape=mxgraph.flowchart.terminator;whiteSpace=wrap;strokeColor=#000000;rounded=0;" vertex="1" parent="1">
          <mxGeometry x="380" y="10" width="100" height="60" as="geometry" />
        </mxCell>
        <mxCell id="Qhr0cGzoNZ5YHBvnVtz_-106" style="edgeStyle=orthogonalEdgeStyle;shape=flexArrow;rounded=0;orthogonalLoop=1;jettySize=auto;html=1;entryX=0.5;entryY=0;entryDx=0;entryDy=0;fontSize=16;endArrow=classic;endFill=1;strokeWidth=1;strokeColor=#00CC00;" edge="1" parent="1" source="Qhr0cGzoNZ5YHBvnVtz_-4">
          <mxGeometry relative="1" as="geometry">
            <mxPoint x="430" y="240" as="targetPoint" />
          </mxGeometry>
        </mxCell>
        <mxCell id="Qhr0cGzoNZ5YHBvnVtz_-4" value="&lt;br&gt;9 pérolas." style="html=1;strokeWidth=2;shape=manualInput;whiteSpace=wrap;rounded=0;size=26;arcSize=11;strokeColor=#000000;" vertex="1" parent="1">
          <mxGeometry x="375" y="120" width="110" height="80" as="geometry" />
        </mxCell>
        <mxCell id="Qhr0cGzoNZ5YHBvnVtz_-14" value="Fim&lt;br&gt;" style="strokeWidth=2;html=1;shape=mxgraph.flowchart.terminator;whiteSpace=wrap;strokeColor=#000000;rounded=0;" vertex="1" parent="1">
          <mxGeometry x="885" y="170" width="100" height="60" as="geometry" />
        </mxCell>
        <mxCell id="Qhr0cGzoNZ5YHBvnVtz_-125" value="" style="edgeStyle=orthogonalEdgeStyle;shape=flexArrow;rounded=0;orthogonalLoop=1;jettySize=auto;html=1;fontSize=16;endArrow=classic;endFill=1;strokeColor=#FF3333;strokeWidth=1;" edge="1" parent="1" source="Qhr0cGzoNZ5YHBvnVtz_-17" target="Qhr0cGzoNZ5YHBvnVtz_-119">
          <mxGeometry relative="1" as="geometry" />
        </mxCell>
        <mxCell id="Qhr0cGzoNZ5YHBvnVtz_-140" value="" style="edgeStyle=orthogonalEdgeStyle;shape=flexArrow;rounded=0;orthogonalLoop=1;jettySize=auto;html=1;fontSize=12;endArrow=classic;endFill=1;strokeColor=#000000;strokeWidth=1;" edge="1" parent="1" source="Qhr0cGzoNZ5YHBvnVtz_-17" target="Qhr0cGzoNZ5YHBvnVtz_-117">
          <mxGeometry relative="1" as="geometry" />
        </mxCell>
        <mxCell id="Qhr0cGzoNZ5YHBvnVtz_-17" value="Compare as 2 pérolas restantes." style="strokeWidth=2;html=1;shape=mxgraph.flowchart.decision;whiteSpace=wrap;strokeColor=#000000;rounded=0;" vertex="1" parent="1">
          <mxGeometry x="715" y="382.5" width="112.5" height="115" as="geometry" />
        </mxCell>
        <mxCell id="Qhr0cGzoNZ5YHBvnVtz_-108" value="" style="edgeStyle=orthogonalEdgeStyle;shape=flexArrow;rounded=0;orthogonalLoop=1;jettySize=auto;html=1;fontSize=16;endArrow=classic;endFill=1;strokeWidth=1;strokeColor=#0000CC;" edge="1" parent="1" source="Qhr0cGzoNZ5YHBvnVtz_-58" target="Qhr0cGzoNZ5YHBvnVtz_-59">
          <mxGeometry relative="1" as="geometry" />
        </mxCell>
        <mxCell id="Qhr0cGzoNZ5YHBvnVtz_-113" value="" style="edgeStyle=orthogonalEdgeStyle;shape=flexArrow;rounded=0;orthogonalLoop=1;jettySize=auto;html=1;fontSize=16;endArrow=classic;endFill=1;strokeColor=#00CC00;strokeWidth=1;" edge="1" parent="1" source="Qhr0cGzoNZ5YHBvnVtz_-58" target="Qhr0cGzoNZ5YHBvnVtz_-60">
          <mxGeometry relative="1" as="geometry" />
        </mxCell>
        <mxCell id="Qhr0cGzoNZ5YHBvnVtz_-58" value="Compare as 6 pérolas restantes na balança(3 pra cada lado)." style="strokeWidth=2;html=1;shape=mxgraph.flowchart.decision;whiteSpace=wrap;strokeColor=#000000;rounded=0;" vertex="1" parent="1">
          <mxGeometry x="350" y="410" width="160" height="160" as="geometry" />
        </mxCell>
        <mxCell id="Qhr0cGzoNZ5YHBvnVtz_-139" value="" style="edgeStyle=orthogonalEdgeStyle;shape=flexArrow;rounded=0;orthogonalLoop=1;jettySize=auto;html=1;fontSize=12;endArrow=classic;endFill=1;strokeColor=#0000CC;strokeWidth=1;" edge="1" parent="1" source="Qhr0cGzoNZ5YHBvnVtz_-59" target="Qhr0cGzoNZ5YHBvnVtz_-135">
          <mxGeometry relative="1" as="geometry" />
        </mxCell>
        <mxCell id="Qhr0cGzoNZ5YHBvnVtz_-59" value="Medidas se igualam." style="rounded=0;whiteSpace=wrap;html=1;absoluteArcSize=1;arcSize=14;strokeWidth=2;strokeColor=#000000;" vertex="1" parent="1">
          <mxGeometry x="180" y="270" width="110" height="60" as="geometry" />
        </mxCell>
        <mxCell id="Qhr0cGzoNZ5YHBvnVtz_-115" style="edgeStyle=orthogonalEdgeStyle;shape=flexArrow;rounded=0;orthogonalLoop=1;jettySize=auto;html=1;entryX=0.5;entryY=1;entryDx=0;entryDy=0;fontSize=16;endArrow=classic;endFill=1;strokeColor=#00CC00;strokeWidth=1;" edge="1" parent="1" source="Qhr0cGzoNZ5YHBvnVtz_-60" target="Qhr0cGzoNZ5YHBvnVtz_-61">
          <mxGeometry relative="1" as="geometry" />
        </mxCell>
        <mxCell id="Qhr0cGzoNZ5YHBvnVtz_-60" value="&#xa;&lt;span style=&quot;color: rgb(0, 0, 0); font-family: Helvetica; font-size: 12px; font-style: normal; font-variant-ligatures: normal; font-variant-caps: normal; font-weight: 400; letter-spacing: normal; orphans: 2; text-align: center; text-indent: 0px; text-transform: none; widows: 2; word-spacing: 0px; -webkit-text-stroke-width: 0px; background-color: rgb(248, 249, 250); text-decoration-thickness: initial; text-decoration-style: initial; text-decoration-color: initial; float: none; display: inline !important;&quot;&gt;A diferença (menor)&lt;/span&gt;&lt;br style=&quot;color: rgb(0, 0, 0); font-family: Helvetica; font-size: 12px; font-style: normal; font-variant-ligatures: normal; font-variant-caps: normal; font-weight: 400; letter-spacing: normal; orphans: 2; text-align: center; text-indent: 0px; text-transform: none; widows: 2; word-spacing: 0px; -webkit-text-stroke-width: 0px; background-color: rgb(248, 249, 250); text-decoration-thickness: initial; text-decoration-style: initial; text-decoration-color: initial;&quot;&gt;&lt;span style=&quot;color: rgb(0, 0, 0); font-family: Helvetica; font-size: 12px; font-style: normal; font-variant-ligatures: normal; font-variant-caps: normal; font-weight: 400; letter-spacing: normal; orphans: 2; text-align: center; text-indent: 0px; text-transform: none; widows: 2; word-spacing: 0px; -webkit-text-stroke-width: 0px; background-color: rgb(248, 249, 250); text-decoration-thickness: initial; text-decoration-style: initial; text-decoration-color: initial; float: none; display: inline !important;&quot;&gt;entre o grupo de pérolas.&lt;/span&gt;&#xa;&#xa;" style="rounded=0;whiteSpace=wrap;html=1;absoluteArcSize=1;arcSize=14;strokeWidth=2;strokeColor=#000000;" vertex="1" parent="1">
          <mxGeometry x="375" y="610" width="110" height="60" as="geometry" />
        </mxCell>
        <mxCell id="Qhr0cGzoNZ5YHBvnVtz_-118" value="" style="edgeStyle=orthogonalEdgeStyle;shape=flexArrow;rounded=0;orthogonalLoop=1;jettySize=auto;html=1;fontSize=16;endArrow=classic;endFill=1;strokeColor=#000000;strokeWidth=1;" edge="1" parent="1" source="Qhr0cGzoNZ5YHBvnVtz_-61" target="Qhr0cGzoNZ5YHBvnVtz_-17">
          <mxGeometry relative="1" as="geometry" />
        </mxCell>
        <mxCell id="Qhr0cGzoNZ5YHBvnVtz_-61" value="Reserve uma pérola." style="rounded=0;whiteSpace=wrap;html=1;absoluteArcSize=1;arcSize=14;strokeWidth=2;strokeColor=#FF3333;" vertex="1" parent="1">
          <mxGeometry x="530" y="410" width="110" height="60" as="geometry" />
        </mxCell>
        <mxCell id="Qhr0cGzoNZ5YHBvnVtz_-109" value="" style="edgeStyle=orthogonalEdgeStyle;shape=flexArrow;rounded=0;orthogonalLoop=1;jettySize=auto;html=1;fontSize=16;endArrow=classic;endFill=1;strokeWidth=1;strokeColor=#00CC00;startArrow=none;" edge="1" parent="1" source="Qhr0cGzoNZ5YHBvnVtz_-135" target="Qhr0cGzoNZ5YHBvnVtz_-58">
          <mxGeometry relative="1" as="geometry">
            <mxPoint x="430" y="300" as="sourcePoint" />
          </mxGeometry>
        </mxCell>
        <mxCell id="Qhr0cGzoNZ5YHBvnVtz_-132" value="" style="edgeStyle=orthogonalEdgeStyle;shape=flexArrow;rounded=0;orthogonalLoop=1;jettySize=auto;html=1;fontSize=12;endArrow=classic;endFill=1;strokeColor=#000000;strokeWidth=1;" edge="1" parent="1" source="Qhr0cGzoNZ5YHBvnVtz_-117" target="Qhr0cGzoNZ5YHBvnVtz_-131">
          <mxGeometry relative="1" as="geometry" />
        </mxCell>
        <mxCell id="Qhr0cGzoNZ5YHBvnVtz_-117" value="A diferença menor entre as pérolas." style="rounded=0;whiteSpace=wrap;html=1;absoluteArcSize=1;arcSize=14;strokeWidth=2;strokeColor=#000000;" vertex="1" parent="1">
          <mxGeometry x="716.25" y="270" width="110" height="60" as="geometry" />
        </mxCell>
        <mxCell id="Qhr0cGzoNZ5YHBvnVtz_-122" style="edgeStyle=orthogonalEdgeStyle;shape=flexArrow;rounded=0;orthogonalLoop=1;jettySize=auto;html=1;entryX=0.589;entryY=1.08;entryDx=0;entryDy=0;entryPerimeter=0;fontSize=16;endArrow=classic;endFill=1;strokeColor=#FF3333;strokeWidth=1;" edge="1" parent="1" source="Qhr0cGzoNZ5YHBvnVtz_-119">
          <mxGeometry relative="1" as="geometry">
            <mxPoint x="1103.01" y="329" as="targetPoint" />
          </mxGeometry>
        </mxCell>
        <mxCell id="Qhr0cGzoNZ5YHBvnVtz_-119" value="Medidas se igualam." style="rounded=0;whiteSpace=wrap;html=1;absoluteArcSize=1;arcSize=14;strokeWidth=2;strokeColor=#000000;" vertex="1" parent="1">
          <mxGeometry x="880" y="410" width="110" height="60" as="geometry" />
        </mxCell>
        <mxCell id="Qhr0cGzoNZ5YHBvnVtz_-133" value="" style="edgeStyle=orthogonalEdgeStyle;shape=flexArrow;rounded=0;orthogonalLoop=1;jettySize=auto;html=1;fontSize=12;endArrow=classic;endFill=1;strokeColor=#FF3333;strokeWidth=1;" edge="1" parent="1" source="Qhr0cGzoNZ5YHBvnVtz_-130" target="Qhr0cGzoNZ5YHBvnVtz_-131">
          <mxGeometry relative="1" as="geometry" />
        </mxCell>
        <mxCell id="Qhr0cGzoNZ5YHBvnVtz_-130" value="Pérola reservada" style="rounded=0;whiteSpace=wrap;html=1;absoluteArcSize=1;arcSize=14;strokeWidth=2;strokeColor=#FF3333;" vertex="1" parent="1">
          <mxGeometry x="1050" y="270" width="110" height="60" as="geometry" />
        </mxCell>
        <mxCell id="Qhr0cGzoNZ5YHBvnVtz_-134" value="" style="edgeStyle=orthogonalEdgeStyle;shape=flexArrow;rounded=0;orthogonalLoop=1;jettySize=auto;html=1;fontSize=12;endArrow=classic;endFill=1;strokeColor=#000000;strokeWidth=1;" edge="1" parent="1" source="Qhr0cGzoNZ5YHBvnVtz_-131" target="Qhr0cGzoNZ5YHBvnVtz_-14">
          <mxGeometry relative="1" as="geometry" />
        </mxCell>
        <mxCell id="Qhr0cGzoNZ5YHBvnVtz_-131" value="Pérola mais leve." style="shape=display;whiteSpace=wrap;html=1;sketch=1;fontSize=12;strokeColor=#000000;" vertex="1" parent="1">
          <mxGeometry x="875" y="270" width="120" height="60" as="geometry" />
        </mxCell>
        <mxCell id="Qhr0cGzoNZ5YHBvnVtz_-138" style="edgeStyle=orthogonalEdgeStyle;shape=flexArrow;rounded=0;orthogonalLoop=1;jettySize=auto;html=1;entryX=0.5;entryY=0;entryDx=0;entryDy=0;fontSize=12;endArrow=classic;endFill=1;strokeColor=#0000CC;strokeWidth=1;" edge="1" parent="1" source="Qhr0cGzoNZ5YHBvnVtz_-135" target="Qhr0cGzoNZ5YHBvnVtz_-61">
          <mxGeometry relative="1" as="geometry" />
        </mxCell>
        <mxCell id="Qhr0cGzoNZ5YHBvnVtz_-135" value="Reserve 3 pérolas aleatórias." style="strokeWidth=2;html=1;shape=mxgraph.flowchart.decision;whiteSpace=wrap;sketch=1;fontSize=12;" vertex="1" parent="1">
          <mxGeometry x="370" y="240" width="120" height="120" as="geometry" />
        </mxCell>
      </root>
    </mxGraphModel>
  </diagram>
</mxfile>
